<svg
        contentScriptType="text/ecmascript"
     width="24"
     zoomAndPan="magnify"
     contentStyleType="text/css"
     viewBox="0 0 24 24"
     height="24"
     preserveAspectRatio="xMidYMid meet"
     xmlns="http://www.w3.org/2000/svg"
     version="1.0"
>
    <g fill="#3e3832">
        <path
                fill="none"
                d="M16.625 21.505H2A1.512 1.512 0 0 1 .5 20V2C.5 1.175 1.176.5 2 .5h13c.825 0 1.5.675 1.5 1.5v13.521"
                stroke-miterlimit="10"
                stroke="#3e3832"
                stroke-linejoin="round"
        />
        <path
                stroke-linecap="round"
                fill="none"
                stroke-linejoin="round"
                d="M14.938 17.5H2.5v-15h12v11.438M23 23.5l-3-4v-4.559c0-1.693-1.581-3.305-3.5-4.941m1 6.5l-2.25-2.25c-.414-.414-1.086-.414-1.5 0s-.25 1.25 0 1.5L16 19v1l2 3.5"
                stroke="#3e3832"
                stroke-miterlimit="10"
        />
        <path fill="none" d="M6.031 19.5h3.938" stroke-miterlimit="10" stroke="#3e3832" stroke-linejoin="round" />
        <path d="M4.5 19a.5.5 0 1 0 .002 1.002A.5.5 0 0 0 4.5 19zm7 0a.5.5 0 1 0 .002 1.002A.5.5 0 0 0 11.5 19z" />
        <path
                fill="none"
                d="M5 13.5h7m-7-2h7m-7-2h7m-7-2h7m-7-2h4"
                stroke-miterlimit="10"
                stroke="#3e3832"
                stroke-linejoin="round"
        />
    </g>
</svg>
