<svg width="96" height="96" xmlns="http://www.w3.org/2000/svg" xmlns:xlink="http://www.w3.org/1999/xlink"><defs><circle id="a" cx="48" cy="48" r="48"/><path d="M35.628.314c2.757.736 6.85 2.768 10.254 6.106C49.285 9.758 52 14.778 52 18.674v23.413H0V18.674c0-3.888 2.657-8.9 6-12.233C9.45 2.998 13.631.937 16.37.254c.052 4.585 4.343 9.311 9.63 9.311 5.264 0 9.541-4.685 9.628-9.251z" id="c"/><path id="e" d="M35.009 12.009l.122 1.933 1.804 2.133.276 1.443.228 1.936 1.095 1.52-.123 1.652.111 1.942 1.379 1.878v1.64l1.59 1.825.452-1.796-.2-1.727-.27-1.655.47-1.763-.637-1.764L42 19.37l-.256-1.626-.278-1.72.278-1.914-.438-1.174-.849-1.956-.337-1.78-1.586-1.429-.216-1.538-1.383-1.67-2.571-.55-1.264-1.22-1.715-.787-1.74-1.13-1.969.312-1.698-.424-1.65-.615-1.731-.061-1.726.32L19.14 0l-1.704.402-1.739.055-1.617.73-1.723.271-1.71.437-1.532.897-1.23 1.351-1.69.676-1.124 1.414-1.012 1.471L3.104 9.2l-1.061 1.453-.616 1.697-.116 1.846.025 1.815L0 17.557l.5 1.858-.392 1.75.582 1.77-.652 1.798.727 1.713v1.776l.357 1.917 1.141-1.506.745-1.574.466-1.673-.272-2.01.722-1.603 1.32-1.305-.22-1.584.786-1.555.71-1.593v-1.541l1.365-2.088 2.753.293 1.592 1.241 1.805-.808 1.706.103 1.678.755 1.716.42 1.73-.512 1.726.318 1.698-.654 1.739.307 1.648-.983 1.823 1.045 1.65-.81z"/><path d="M12.381 12.413c0-1.667 3.411-2.08 7.619-2.08s7.619.413 7.619 2.08c0 1.668-2.107 5.111-7.619 5.111s-7.619-3.443-7.619-5.11zm7.391-4.004c-2.949 0-4.515.839-8.823 2.014C4.828 12.093 2 7.415 1 2.818.426.181 0 1.29 0 1.29c0 18.017 12.202 24.1 20.162 24.1C28.25 25.39 40 19.54 40 .94c0-.414-.81-.21-.952.35-.84 3.296.108 11.686-10.733 9.133C24.52 8.845 22.72 8.41 19.772 8.41z" id="g"/></defs><g fill="none" fill-rule="evenodd"><mask id="b" fill="#fff"><use xlink:href="#a"/></mask><g mask="url(#b)"><path fill="#99BDCD" d="M-7.68 96h121V0h-121z"/></g><g mask="url(#b)"><path d="M66.713 46.055c-1.639 5.586-4.98 10.229-9.29 13.044l.216 2.41-.001.098-2.276 19.868H40.93l-.06-.417-2.79-19.485.104-2.437c-4.311-2.794-7.66-7.413-9.316-12.977-.3.2-.654.316-1.036.316v-.486.486c-1.092 0-1.956-.948-1.956-2.097v-6.5c0-1.147.862-2.095 1.952-2.097 1.023-12 9.544-21.39 19.947-21.39 10.406 0 18.93 9.394 19.95 21.397.054-.005.11-.007.165-.007 1.093 0 1.956.948 1.956 2.097v6.5c0 1.15-.863 2.097-1.956 2.097v-.486.486c-.444 0-.85-.157-1.176-.42z" fill="#E7E5E2" fill-rule="nonzero"/><path d="M41.069 39.34c-1.32.11-1.689-2.023-1.291-3.416.074-.264.511-1.466 1.284-1.466s1.114.657 1.161.77c.568 1.358.289 3.993-1.154 4.113M55.793 39.34c1.32.11 1.689-2.023 1.291-3.416-.075-.264-.511-1.466-1.284-1.466s-1.114.657-1.161.77c-.568 1.358-.29 3.993 1.154 4.113" fill="#635E59"/><path d="M48.85 41.793c.775-.13 1.305-.049 1.495.207.716.965.487 1.987-.742 2.825-.646.441-1.535.596-2.006.368-.23-.112-.5.002-.602.255-.101.252.003.548.233.66.778.377 1.975.168 2.857-.433 1.67-1.14 2.052-2.844.967-4.307-.46-.618-1.272-.744-2.341-.563-.25.042-.42.297-.382.57.039.273.271.46.52.418zM54.046 49.084a4.7 4.7 0 0 1-.287.561 7 7 0 0 1-.97 1.296c-1.166 1.229-2.684 1.939-4.615 1.874-1.884-.063-3.394-.763-4.579-1.89a7.256 7.256 0 0 1-1.08-1.3 4.643 4.643 0 0 1-.322-.562c-.111-.248-.384-.35-.61-.228-.226.122-.32.422-.208.67.067.149.197.393.396.7a8.225 8.225 0 0 0 1.226 1.474c1.337 1.274 3.046 2.065 5.149 2.136 2.19.073 3.94-.746 5.275-2.153a7.98 7.98 0 0 0 1.107-1.479c.178-.307.294-.55.354-.7.1-.252-.005-.547-.236-.657-.23-.11-.5.005-.6.258z" fill="#59514B" fill-rule="nonzero"/><g><g transform="translate(22.051 59.43)"><mask id="d" fill="#fff"><use xlink:href="#c"/></mask><use fill="#D8A25D" xlink:href="#c"/><g mask="url(#d)" fill="#0C5472"><path d="M-34.667 69.217h121v-96h-121z"/></g></g><g transform="translate(26.83 9.6)"><mask id="f" fill="#fff"><use xlink:href="#e"/></mask><use fill="#3E3832" xlink:href="#e"/><g mask="url(#f)" fill="#3E3832"><path d="M-14.318-23.333h66v77h-66z"/></g></g><g transform="translate(27.786 39.29)"><mask id="h" fill="#fff"><use xlink:href="#g"/></mask><g mask="url(#h)" fill="#3E3832"><path d="M-10.476-21.942h66v80h-66z"/></g></g></g></g><g><path d="M74.377 86.88H59.742c-.653 0-1.182-.568-1.182-1.27V77.15c0-.702.529-1.271 1.182-1.271h14.635c.653 0 1.183.57 1.183 1.271v8.458c0 .703-.53 1.271-1.183 1.271" fill="#D2242A"/><path d="M70.71 81.888c0 2.077-1.599 3.763-3.57 3.763-1.976 0-3.575-1.686-3.575-3.763s1.6-3.763 3.574-3.763c1.972 0 3.57 1.686 3.57 3.763M62.512 83.547h-.697l.744-1.923h.699zM71.292 83.547h-.432l.745-1.923h.431zM72.484 83.547H72.3l.743-1.923h.182z" fill="#FFF"/><path d="M64.426 83.538h.548a.05.05 0 0 0 .05-.052v-1.8a.05.05 0 0 0-.05-.051h-.554c-.037 0-.064.03-.064.068l-.218.566c-.013.029.009.064.038.064h.157c.023 0 .043.019.043.046v1.107c0 .029.022.052.05.052" fill="#C52D35"/><path d="M65.617 83.538h.55a.053.053 0 0 0 .053-.052v-1.8a.053.053 0 0 0-.053-.051h-.855a.066.066 0 0 0-.065.068l-.218.566-.076.064h.438a.18.18 0 0 1 .177.186v.967c0 .029.021.052.05.052M68.076 81.635h-.55a.051.051 0 0 0-.05.052v1.799c0 .029.023.052.05.052h.556c.037 0 .064-.03.064-.068l.218-.566a.045.045 0 0 0-.041-.065h-.152c-.025 0-.043-.02-.043-.045v-1.107a.053.053 0 0 0-.052-.052" fill="#C52D35"/><path d="M65.814 83.538h.362c.035 0 .063-.031.063-.067l.218-.568c.013-.03-.008-.065-.04-.065h-.152l-.45.7zM69.548 81.635h.654c.032 0 .055.032.041.062l-.692 1.812c-.005.018-.021.029-.04.029h-.592l.586-1.872a.046.046 0 0 1 .043-.031" fill="#C52D35"/><path d="M68.728 81.635h-.925c-.065 0 .266.067.29.13l.654 1.713c.013.038.047.06.083.06h.561l-.576-1.839a.09.09 0 0 0-.087-.064M67.52 82.245c0 .383-.045.406-.045.406s-.052-.367-.321-.367c-.265 0-.325.162-.325.283 0 .14.135.272.21.272h.482l-.284.664a.058.058 0 0 1-.053.035h-.22c-.228 0-.826-.316-.826-.928 0-.613.445-.975.815-.975.306 0 .568.221.568.61z" fill="#C52D35"/><path d="M67.94 77.626h-1.517a.208.208 0 0 1-.203-.214v-.27c0-.117.09-.213.203-.213h1.516c.113 0 .203.096.203.214v.27c0 .118-.09.213-.203.213" fill="#5A1F57"/><path fill="#C2B5CF" d="M66.742 77.38h.879v-2.5h-.879z"/></g></g></svg>